<?xml version="1.0" encoding="utf-8"?>
<!-- Generator: Adobe Illustrator 16.0.0, SVG Export Plug-In . SVG Version: 6.00 Build 0)  -->
<!DOCTYPE svg PUBLIC "-//W3C//DTD SVG 1.1//EN" "http://www.w3.org/Graphics/SVG/1.1/DTD/svg11.dtd">
<svg version="1.1" id="Capa_1" xmlns="http://www.w3.org/2000/svg" xmlns:xlink="http://www.w3.org/1999/xlink" x="0px" y="0px"
	 width="612px" height="792px" viewBox="0 0 612 792" enable-background="new 0 0 612 792" xml:space="preserve">
<g>
	<path fill="#727171" d="M294.441,530.208h24.018c0,0,7.255-0.796,10.958-4.789c3.409-3.665,3.301-10.549,3.301-10.549
		s-0.47-32.227,14.487-36.973c14.744-4.675,33.678,31.146,53.745,44.92c15.176,10.424,26.707,8.139,26.707,8.139l53.658-0.748
		c0,0,28.07-1.729,14.761-23.799c-1.091-1.806-7.752-16.326-39.896-46.163c-33.645-31.229-29.139-26.178,11.39-80.196
		c24.683-32.897,34.551-52.982,31.469-61.584c-2.94-8.193-21.094-6.027-21.094-6.027l-60.417,0.376c0,0-4.479-0.611-7.8,1.375
		c-3.246,1.947-5.335,6.486-5.335,6.486s-9.563,25.457-22.315,47.107c-26.902,45.684-37.659,48.094-42.056,45.258
		c-10.228-6.611-7.675-26.56-7.675-40.731c0-44.271,6.715-62.729-13.075-67.508c-6.567-1.587-11.4-2.635-28.196-2.804
		c-21.557-0.224-39.803,0.065-50.134,5.127c-6.873,3.366-12.175,10.866-8.946,11.297c3.993,0.534,13.037,2.438,17.832,8.967
		c6.191,8.422,5.973,27.339,5.973,27.339s3.557,52.114-8.308,58.589c-8.144,4.44-19.315-4.625-43.299-46.07
		c-12.29-21.23-21.568-44.696-21.568-44.696s-1.789-4.385-4.98-6.731c-3.873-2.842-9.284-3.748-9.284-3.748l-57.411,0.376
		c0,0-8.618,0.24-11.782,3.987c-2.814,3.333-0.224,10.228-0.224,10.228s44.947,105.156,95.84,158.149
		C241.449,533.399,294.441,530.208,294.441,530.208L294.441,530.208z"/>
</g>
</svg>
